<svg xmlns="http://www.w3.org/2000/svg" viewBox="0 0 2160 2160"><defs><style>.cls-1{fill:#e0a769;}.cls-2{fill:#f4ba6c;}.cls-3{fill:#cc9466;}.cls-4{fill:#d8a261;}.cls-5{fill:#a57755;}.cls-6{fill:#b28456;}.cls-7{fill:#f2be8f;}.cls-8{fill:#fff;stroke:#cc9466;stroke-width:6.48px;}.cls-10,.cls-8{stroke-miterlimit:10;}.cls-9{fill:#353535;}.cls-10{fill:none;stroke:#353535;stroke-width:9.73px;}.cls-11{fill:#eaa97d;}.cls-12{fill:#f9d3a0;}</style></defs><g id="Fitas"><polygon class="cls-1" points="756.29 1512.5 755.35 1889.66 1889.97 1234.58 1890.92 857.66 756.29 1512.5"/><polygon class="cls-2" points="1889.97 858.73 1403.7 577.98 269.08 1233.06 755.35 1513.8 1889.97 858.73"/><polygon class="cls-3" points="755.35 1889.66 269.08 1608.91 270.03 1233.7 431.4 1326.23 756.29 1512.5 755.35 1889.66"/><polygon class="cls-3" points="1358.32 1109.67 1358.32 548.8 1034.14 363.16 1033.19 924.11 1358.32 1109.67"/><polygon class="cls-1" points="1683.44 924.11 1358.32 1109.67 1358.32 548.8 1683.44 362.62 1683.44 924.11"/><polygon class="cls-2" points="1034.14 363.16 1358.32 176 1683.44 362.62 1358.32 548.8 1034.14 363.16"/><polygon class="cls-3" points="755.35 1328.16 429.85 1140.24 429.85 765.91 756.29 953.29 755.35 1328.16"/><polygon class="cls-1" points="1238.98 1045.89 755.35 1328.16 756.29 953.29 1240.3 672.33 1238.98 1045.89"/><polygon class="cls-2" points="429.85 765.91 917.44 485.92 1240.3 672.33 756.29 953.29 429.85 765.91"/><polygon class="cls-3" points="917.44 1796.07 1240.3 1984 1240.3 1705.4 917.44 1516.75 917.44 1796.07"/><polygon class="cls-1" points="1565.79 1796.07 1240.3 1984 1240.3 1705.4 1565.79 1519 1565.79 1796.07"/><polygon class="cls-4" points="1240.3 1332.6 1565.79 1519 1240.3 1705.4 917.44 1516.75 1240.3 1332.6"/><polygon class="cls-5" points="1240.3 1332.6 1240.3 1609.67 1324.86 1656.97 1565.79 1519 1240.3 1332.6"/><polygon class="cls-6" points="917.44 1516.75 1240.3 1332.6 1240.3 1609.67 1157.41 1656.97 917.44 1516.75"/><polyline class="cls-2" points="917.44 1516.75 808.16 1651.89 1132.34 1839.92 1241.62 1704.77"/><polygon class="cls-2" points="1565.79 1519 1647.79 1541.67 1323.61 1353.65 1241.62 1330.97 1565.79 1519"/><polygon class="cls-7" points="1356.26 1638.45 1356.26 1848.52 1444.7 1797.46 1444.7 1589.23 1356.26 1638.45"/><polygon class="cls-2" points="1241.62 1707.02 1308.32 1822.56 1632.5 1634.53 1565.79 1519 1241.62 1707.02"/><line class="cls-8" x1="1193.66" y1="271.07" x2="1517.16" y2="457.84"/><polygon class="cls-9" points="568.27 1115.97 568.27 1138.66 448.33 1069.41 448.33 1046.72 568.27 1115.97"/><polygon class="cls-9" points="513.16 1693 513.16 1715.7 393.21 1646.45 393.21 1623.75 513.16 1693"/><path class="cls-10" d="M338.1,1582.07v24c0,4.72-3.83,6.34-8.55,3.61l-24-13.83c-4.73-2.73-8.56-8.77-8.56-13.5v-24c0-4.73,3.83-6.35,8.56-3.62l24,13.84C334.27,1571.3,338.1,1577.35,338.1,1582.07Z"/><path class="cls-10" d="M338.1,1523.72v24c0,4.73-3.83,6.35-8.55,3.62l-24-13.83c-4.73-2.73-8.56-8.78-8.56-13.5v-24c0-4.73,3.83-6.35,8.56-3.62l24,13.83C334.27,1513,338.1,1519,338.1,1523.72Z"/><path class="cls-10" d="M338.1,1465.37v24c0,4.73-3.83,6.35-8.55,3.62l-24-13.84c-4.73-2.72-8.56-8.77-8.56-13.49v-24c0-4.72,3.83-6.34,8.56-3.61l24,13.83C334.27,1454.6,338.1,1460.64,338.1,1465.37Z"/><path class="cls-10" d="M1775.28,1235.2v24c0,4.72,3.83,6.34,8.56,3.61l24-13.83c4.73-2.73,8.56-8.77,8.56-13.5v-24c0-4.73-3.83-6.35-8.56-3.62l-24,13.83C1779.11,1224.43,1775.28,1230.48,1775.28,1235.2Z"/><path class="cls-10" d="M1830.39,1202.79v24c0,4.72,3.83,6.34,8.56,3.61l24-13.83c4.73-2.73,8.56-8.77,8.56-13.5v-24c0-4.73-3.83-6.35-8.56-3.62l-24,13.84C1834.22,1192,1830.39,1198.06,1830.39,1202.79Z"/><path class="cls-10" d="M1659.13,590.53v39c0,8.81-7.14,20.07-16,25.15L1412.5,787.9c-8.81,5.09-16,2.07-16-6.74v-39c0-8.81,7.14-20.07,16-25.16l230.68-133.18C1652,578.7,1659.13,581.72,1659.13,590.53Z"/><polygon class="cls-9" points="1626.96 614.52 1626.96 636.68 1423.89 753.92 1423.89 731.77 1626.96 614.52"/><polygon class="cls-9" points="1213.39 1015.75 1213.39 1040.89 1035.33 1143.69 1035.33 1118.55 1213.39 1015.75"/><polygon class="cls-9" points="1213.39 983.33 1213.39 1008.47 1035.33 1111.27 1035.33 1086.13 1213.39 983.33"/><polygon class="cls-9" points="1209.23 951.67 1209.23 970.14 1078.39 1045.68 1078.39 1027.21 1209.23 951.67"/><polygon class="cls-9" points="1546.37 1775.08 1546.37 1793.56 1415.54 1869.1 1415.54 1850.62 1546.37 1775.08"/><polygon class="cls-11" points="431.4 1513.8 593.07 1609.02 593.07 1420.11 431.4 1326.23 431.4 1513.8"/><polygon class="cls-12" points="755.35 1328.16 593.07 1420.11 431.4 1326.23 594.77 1233.7 755.35 1328.16"/><polygon class="cls-11" points="561.91 841.17 561.91 969.5 624.87 1005.84 624.87 877.87 561.91 841.17"/><polygon class="cls-12" points="561.91 841.17 1048.51 561.6 1110.79 597.56 624.87 877.87 561.91 841.17"/><polygon class="cls-12" points="1150.85 296.38 1475.97 482.99 1569.04 428.86 1244.86 241.69 1150.85 296.38"/><polyline class="cls-7" points="1475.97 482.99 1475.97 577.98 1569.04 520.55 1569.04 428.86 1475.97 482.99"/></g></svg>