<svg xmlns="http://www.w3.org/2000/svg" viewBox="0 0 32 32"><defs><style>.cls-1{fill:none;stroke:#1d1d1b;stroke-linecap:round;stroke-linejoin:round;stroke-width:0.61px;}</style></defs><g id="Camada_2" data-name="Camada 2"><polyline class="cls-1" points="11.76 23.58 6.29 20.17 6.29 18.66 12.35 22.45 16.01 17.9 16.01 26.23 12.94 24.32"/><polygon class="cls-1" points="16.01 17.9 12.35 22.45 6.29 18.66 2.65 16.38 6.3 11.83 12.97 16.01 16.01 17.9"/><polyline class="cls-1" points="28.63 15.47 29.35 16.38 25.7 18.66 19.63 22.45 16.01 17.9 19.04 16.01 25.71 11.83 27.88 14.55"/><polygon class="cls-1" points="25.7 18.66 25.7 20.18 16.01 26.23 16.01 17.9 19.63 22.45 25.7 18.66"/><polyline class="cls-1" points="25.71 11.83 16.01 5.77 16.01 14.11"/><line class="cls-1" x1="12.94" y1="7.68" x2="13.58" y2="7.29"/><polyline class="cls-1" points="14.65 6.62 16.01 5.77 16.01 14.11 12.97 16.01 6.3 11.83 12.05 8.24"/><polygon class="cls-1" points="25.71 11.83 19.04 16.01 16.01 14.11 16.01 5.77 25.71 11.83"/></g></svg>