<svg id="Camada_3" data-name="Camada 3" xmlns="http://www.w3.org/2000/svg" viewBox="0 0 32 32"><defs><style>.cls-1,.cls-2{fill:none;stroke:#1d1d1b;stroke-linecap:round;stroke-linejoin:round;}.cls-1{stroke-width:0.61px;}.cls-2{stroke-width:0.5px;}</style></defs><line class="cls-1" x1="8.99" y1="22.04" x2="8.4" y2="21.67"/><polyline class="cls-1" points="7.5 21.11 6.29 20.35 6.3 12.02 16 18.08 16 18.08 16 26.42 9.88 22.6"/><polyline class="cls-1" points="25.71 15.26 25.7 20.37 16 26.42 16 18.08 25.71 12.02 25.71 13.27"/><line class="cls-1" x1="25.71" y1="14.22" x2="25.71" y2="14.57"/><polyline class="cls-1" points="17.28 15.7 16 18.08 6.3 12.02 8.74 7.47 18.45 13.54 17.95 14.47"/><polygon class="cls-1" points="16 18.08 16 18.08 6.3 12.02 16 18.08"/><polygon class="cls-1" points="25.71 12.02 21.47 11.64 11.76 5.58 16 5.96 25.71 12.02"/><polygon class="cls-1" points="25.71 12.02 25.71 12.02 16 5.96 25.71 12.02"/><line class="cls-2" x1="24.51" y1="18.84" x2="20.87" y2="21.11"/><line class="cls-2" x1="24.5" y1="18.08" x2="22.68" y2="19.22"/><line class="cls-1" x1="11.17" y1="8.99" x2="14.19" y2="7.09"/></svg>